<svg width="290" height="289" viewBox="0 0 290 289" fill="none" xmlns="http://www.w3.org/2000/svg">
<g clip-path="url(#clip0_184_3401)">
<path fill-rule="evenodd" clip-rule="evenodd" d="M103.743 11.5601H113.369V21.1867H103.743V11.5601Z" fill="#FEFDE9"/>
<path fill-rule="evenodd" clip-rule="evenodd" d="M112.911 11.5601H122.538V21.1867H112.911V11.5601Z" fill="#FEFDE9"/>
<path fill-rule="evenodd" clip-rule="evenodd" d="M131.248 11.5601H140.874V21.1867H131.248V11.5601Z" fill="#FEFDE9"/>
<path fill-rule="evenodd" clip-rule="evenodd" d="M140.416 11.5601H150.042V21.1867H140.416V11.5601Z" fill="#FEFDE9"/>
<path fill-rule="evenodd" clip-rule="evenodd" d="M149.584 11.5601H159.211V21.1867H149.584V11.5601Z" fill="#FEFDE9"/>
<path fill-rule="evenodd" clip-rule="evenodd" d="M167.921 11.5601H177.547V21.1867H167.921V11.5601Z" fill="#FEFDE9"/>
<path fill-rule="evenodd" clip-rule="evenodd" d="M186.257 11.5601H195.884V21.1867H186.257V11.5601Z" fill="#FEFDE9"/>
<path fill-rule="evenodd" clip-rule="evenodd" d="M195.426 11.5601H205.052V21.1867H195.426V11.5601Z" fill="#FEFDE9"/>
<path fill-rule="evenodd" clip-rule="evenodd" d="M85.4062 20.7283H95.0329V30.355H85.4062V20.7283Z" fill="#FEFDE9"/>
<path fill-rule="evenodd" clip-rule="evenodd" d="M103.743 20.7283H113.369V30.355H103.743V20.7283Z" fill="#FEFDE9"/>
<path fill-rule="evenodd" clip-rule="evenodd" d="M112.911 20.7283H122.538V30.355H112.911V20.7283Z" fill="#FEFDE9"/>
<path fill-rule="evenodd" clip-rule="evenodd" d="M131.248 20.7283H140.874V30.355H131.248V20.7283Z" fill="#FEFDE9"/>
<path fill-rule="evenodd" clip-rule="evenodd" d="M140.416 20.7283H150.042V30.355H140.416V20.7283Z" fill="#FEFDE9"/>
<path fill-rule="evenodd" clip-rule="evenodd" d="M149.584 20.7283H159.211V30.355H149.584V20.7283Z" fill="#FEFDE9"/>
<path fill-rule="evenodd" clip-rule="evenodd" d="M158.752 20.7283H168.379V30.355H158.752V20.7283Z" fill="#FEFDE9"/>
<path fill-rule="evenodd" clip-rule="evenodd" d="M195.426 20.7283H205.052V30.355H195.426V20.7283Z" fill="#FEFDE9"/>
<path fill-rule="evenodd" clip-rule="evenodd" d="M85.4062 29.8965H95.0329V39.5232H85.4062V29.8965Z" fill="#FEFDE9"/>
<path fill-rule="evenodd" clip-rule="evenodd" d="M94.5745 29.8965H104.201V39.5232H94.5745V29.8965Z" fill="#FEFDE9"/>
<path fill-rule="evenodd" clip-rule="evenodd" d="M112.911 29.8965H122.538V39.5232H112.911V29.8965Z" fill="#FEFDE9"/>
<path fill-rule="evenodd" clip-rule="evenodd" d="M122.079 29.8965H131.706V39.5232H122.079V29.8965Z" fill="#FEFDE9"/>
<path fill-rule="evenodd" clip-rule="evenodd" d="M149.584 29.8965H159.211V39.5232H149.584V29.8965Z" fill="#FEFDE9"/>
<path fill-rule="evenodd" clip-rule="evenodd" d="M167.921 29.8965H177.547V39.5232H167.921V29.8965Z" fill="#FEFDE9"/>
<path fill-rule="evenodd" clip-rule="evenodd" d="M186.257 29.8965H195.884V39.5232H186.257V29.8965Z" fill="#FEFDE9"/>
<path fill-rule="evenodd" clip-rule="evenodd" d="M195.426 29.8965H205.052V39.5232H195.426V29.8965Z" fill="#FEFDE9"/>
<path fill-rule="evenodd" clip-rule="evenodd" d="M85.4062 39.0649H95.0329V48.6916H85.4062V39.0649Z" fill="#FEFDE9"/>
<path fill-rule="evenodd" clip-rule="evenodd" d="M94.5745 39.0649H104.201V48.6916H94.5745V39.0649Z" fill="#FEFDE9"/>
<path fill-rule="evenodd" clip-rule="evenodd" d="M122.079 39.0649H131.706V48.6916H122.079V39.0649Z" fill="#FEFDE9"/>
<path fill-rule="evenodd" clip-rule="evenodd" d="M131.248 39.0649H140.874V48.6916H131.248V39.0649Z" fill="#FEFDE9"/>
<path fill-rule="evenodd" clip-rule="evenodd" d="M149.584 39.0649H159.211V48.6916H149.584V39.0649Z" fill="#FEFDE9"/>
<path fill-rule="evenodd" clip-rule="evenodd" d="M167.921 39.0649H177.547V48.6916H167.921V39.0649Z" fill="#FEFDE9"/>
<path fill-rule="evenodd" clip-rule="evenodd" d="M195.426 39.0649H205.052V48.6916H195.426V39.0649Z" fill="#FEFDE9"/>
<path fill-rule="evenodd" clip-rule="evenodd" d="M85.4062 48.2332H95.0329V57.8598H85.4062V48.2332Z" fill="#FEFDE9"/>
<path fill-rule="evenodd" clip-rule="evenodd" d="M122.079 48.2332H131.706V57.8598H122.079V48.2332Z" fill="#FEFDE9"/>
<path fill-rule="evenodd" clip-rule="evenodd" d="M131.248 48.2332H140.874V57.8598H131.248V48.2332Z" fill="#FEFDE9"/>
<path fill-rule="evenodd" clip-rule="evenodd" d="M140.416 48.2332H150.042V57.8598H140.416V48.2332Z" fill="#FEFDE9"/>
<path fill-rule="evenodd" clip-rule="evenodd" d="M158.752 48.2332H168.379V57.8598H158.752V48.2332Z" fill="#FEFDE9"/>
<path fill-rule="evenodd" clip-rule="evenodd" d="M177.089 48.2332H186.716V57.8598H177.089V48.2332Z" fill="#FEFDE9"/>
<path fill-rule="evenodd" clip-rule="evenodd" d="M195.426 48.2332H205.052V57.8598H195.426V48.2332Z" fill="#FEFDE9"/>
<path fill-rule="evenodd" clip-rule="evenodd" d="M85.4062 57.4016H95.0329V67.0283H85.4062V57.4016Z" fill="#FEFDE9"/>
<path fill-rule="evenodd" clip-rule="evenodd" d="M112.911 57.4016H122.538V67.0283H112.911V57.4016Z" fill="#FEFDE9"/>
<path fill-rule="evenodd" clip-rule="evenodd" d="M122.079 57.4016H131.706V67.0283H122.079V57.4016Z" fill="#FEFDE9"/>
<path fill-rule="evenodd" clip-rule="evenodd" d="M158.752 57.4016H168.379V67.0283H158.752V57.4016Z" fill="#FEFDE9"/>
<path fill-rule="evenodd" clip-rule="evenodd" d="M167.921 57.4016H177.547V67.0283H167.921V57.4016Z" fill="#FEFDE9"/>
<path fill-rule="evenodd" clip-rule="evenodd" d="M177.089 57.4016H186.716V67.0283H177.089V57.4016Z" fill="#FEFDE9"/>
<path fill-rule="evenodd" clip-rule="evenodd" d="M85.4062 66.5696H95.0329V76.1963H85.4062V66.5696Z" fill="#FEFDE9"/>
<path fill-rule="evenodd" clip-rule="evenodd" d="M103.743 66.5696H113.369V76.1963H103.743V66.5696Z" fill="#FEFDE9"/>
<path fill-rule="evenodd" clip-rule="evenodd" d="M122.079 66.5696H131.706V76.1963H122.079V66.5696Z" fill="#FEFDE9"/>
<path fill-rule="evenodd" clip-rule="evenodd" d="M140.416 66.5696H150.042V76.1963H140.416V66.5696Z" fill="#FEFDE9"/>
<path fill-rule="evenodd" clip-rule="evenodd" d="M158.752 66.5696H168.379V76.1963H158.752V66.5696Z" fill="#FEFDE9"/>
<path fill-rule="evenodd" clip-rule="evenodd" d="M177.089 66.5696H186.716V76.1963H177.089V66.5696Z" fill="#FEFDE9"/>
<path fill-rule="evenodd" clip-rule="evenodd" d="M195.426 66.5696H205.052V76.1963H195.426V66.5696Z" fill="#FEFDE9"/>
<path fill-rule="evenodd" clip-rule="evenodd" d="M94.5745 75.738H104.201V85.3647H94.5745V75.738Z" fill="#FEFDE9"/>
<path fill-rule="evenodd" clip-rule="evenodd" d="M112.911 75.738H122.538V85.3647H112.911V75.738Z" fill="#FEFDE9"/>
<path fill-rule="evenodd" clip-rule="evenodd" d="M122.079 75.738H131.706V85.3647H122.079V75.738Z" fill="#FEFDE9"/>
<path fill-rule="evenodd" clip-rule="evenodd" d="M131.248 75.738H140.874V85.3647H131.248V75.738Z" fill="#FEFDE9"/>
<path fill-rule="evenodd" clip-rule="evenodd" d="M140.416 75.738H150.042V85.3647H140.416V75.738Z" fill="#FEFDE9"/>
<path fill-rule="evenodd" clip-rule="evenodd" d="M149.584 75.738H159.211V85.3647H149.584V75.738Z" fill="#FEFDE9"/>
<path fill-rule="evenodd" clip-rule="evenodd" d="M158.752 75.738H168.379V85.3647H158.752V75.738Z" fill="#FEFDE9"/>
<path fill-rule="evenodd" clip-rule="evenodd" d="M167.921 75.738H177.547V85.3647H167.921V75.738Z" fill="#FEFDE9"/>
<path fill-rule="evenodd" clip-rule="evenodd" d="M186.257 75.738H195.884V85.3647H186.257V75.738Z" fill="#FEFDE9"/>
<path fill-rule="evenodd" clip-rule="evenodd" d="M30.3965 84.9062H40.0232V94.5329H30.3965V84.9062Z" fill="#FEFDE9"/>
<path fill-rule="evenodd" clip-rule="evenodd" d="M57.9014 84.9062H67.5281V94.5329H57.9014V84.9062Z" fill="#FEFDE9"/>
<path fill-rule="evenodd" clip-rule="evenodd" d="M67.0696 84.9062H76.6963V94.5329H67.0696V84.9062Z" fill="#FEFDE9"/>
<path fill-rule="evenodd" clip-rule="evenodd" d="M76.238 84.9062H85.8647V94.5329H76.238V84.9062Z" fill="#FEFDE9"/>
<path fill-rule="evenodd" clip-rule="evenodd" d="M85.4062 84.9062H95.0329V94.5329H85.4062V84.9062Z" fill="#FEFDE9"/>
<path fill-rule="evenodd" clip-rule="evenodd" d="M112.911 84.9062H122.538V94.5329H112.911V84.9062Z" fill="#FEFDE9"/>
<path fill-rule="evenodd" clip-rule="evenodd" d="M131.248 84.9062H140.874V94.5329H131.248V84.9062Z" fill="#FEFDE9"/>
<path fill-rule="evenodd" clip-rule="evenodd" d="M140.416 84.9062H150.042V94.5329H140.416V84.9062Z" fill="#FEFDE9"/>
<path fill-rule="evenodd" clip-rule="evenodd" d="M158.752 84.9062H168.379V94.5329H158.752V84.9062Z" fill="#FEFDE9"/>
<path fill-rule="evenodd" clip-rule="evenodd" d="M167.921 84.9062H177.547V94.5329H167.921V84.9062Z" fill="#FEFDE9"/>
<path fill-rule="evenodd" clip-rule="evenodd" d="M186.257 84.9062H195.884V94.5329H186.257V84.9062Z" fill="#FEFDE9"/>
<path fill-rule="evenodd" clip-rule="evenodd" d="M195.426 84.9062H205.052V94.5329H195.426V84.9062Z" fill="#FEFDE9"/>
<path fill-rule="evenodd" clip-rule="evenodd" d="M204.594 84.9062H214.22V94.5329H204.594V84.9062Z" fill="#FEFDE9"/>
<path fill-rule="evenodd" clip-rule="evenodd" d="M222.93 84.9062H232.557V94.5329H222.93V84.9062Z" fill="#FEFDE9"/>
<path fill-rule="evenodd" clip-rule="evenodd" d="M232.099 84.9062H241.725V94.5329H232.099V84.9062Z" fill="#FEFDE9"/>
<path fill-rule="evenodd" clip-rule="evenodd" d="M241.267 84.9062H250.894V94.5329H241.267V84.9062Z" fill="#FEFDE9"/>
<path fill-rule="evenodd" clip-rule="evenodd" d="M250.435 84.9062H260.062V94.5329H250.435V84.9062Z" fill="#FEFDE9"/>
<path fill-rule="evenodd" clip-rule="evenodd" d="M259.604 84.9062H269.23V94.5329H259.604V84.9062Z" fill="#FEFDE9"/>
<path fill-rule="evenodd" clip-rule="evenodd" d="M12.0601 94.0745H21.6867V103.701H12.0601V94.0745Z" fill="#FEFDE9"/>
<path fill-rule="evenodd" clip-rule="evenodd" d="M39.5649 94.0745H49.1916V103.701H39.5649V94.0745Z" fill="#FEFDE9"/>
<path fill-rule="evenodd" clip-rule="evenodd" d="M57.9014 94.0745H67.5281V103.701H57.9014V94.0745Z" fill="#FEFDE9"/>
<path fill-rule="evenodd" clip-rule="evenodd" d="M85.4062 94.0745H95.0329V103.701H85.4062V94.0745Z" fill="#FEFDE9"/>
<path fill-rule="evenodd" clip-rule="evenodd" d="M122.079 94.0745H131.706V103.701H122.079V94.0745Z" fill="#FEFDE9"/>
<path fill-rule="evenodd" clip-rule="evenodd" d="M131.248 94.0745H140.874V103.701H131.248V94.0745Z" fill="#FEFDE9"/>
<path fill-rule="evenodd" clip-rule="evenodd" d="M158.752 94.0745H168.379V103.701H158.752V94.0745Z" fill="#FEFDE9"/>
<path fill-rule="evenodd" clip-rule="evenodd" d="M167.921 94.0745H177.547V103.701H167.921V94.0745Z" fill="#FEFDE9"/>
<path fill-rule="evenodd" clip-rule="evenodd" d="M195.426 94.0745H205.052V103.701H195.426V94.0745Z" fill="#FEFDE9"/>
<path fill-rule="evenodd" clip-rule="evenodd" d="M204.594 94.0745H214.22V103.701H204.594V94.0745Z" fill="#FEFDE9"/>
<path fill-rule="evenodd" clip-rule="evenodd" d="M213.762 94.0745H223.389V103.701H213.762V94.0745Z" fill="#FEFDE9"/>
<path fill-rule="evenodd" clip-rule="evenodd" d="M241.267 94.0745H250.894V103.701H241.267V94.0745Z" fill="#FEFDE9"/>
<path fill-rule="evenodd" clip-rule="evenodd" d="M259.604 94.0745H269.23V103.701H259.604V94.0745Z" fill="#FEFDE9"/>
<path fill-rule="evenodd" clip-rule="evenodd" d="M268.772 94.0745H278.398V103.701H268.772V94.0745Z" fill="#FEFDE9"/>
<path fill-rule="evenodd" clip-rule="evenodd" d="M12.0601 103.243H21.6867V112.869H12.0601V103.243Z" fill="#FEFDE9"/>
<path fill-rule="evenodd" clip-rule="evenodd" d="M30.3965 103.243H40.0232V112.869H30.3965V103.243Z" fill="#FEFDE9"/>
<path fill-rule="evenodd" clip-rule="evenodd" d="M57.9014 103.243H67.5281V112.869H57.9014V103.243Z" fill="#FEFDE9"/>
<path fill-rule="evenodd" clip-rule="evenodd" d="M67.0696 103.243H76.6963V112.869H67.0696V103.243Z" fill="#FEFDE9"/>
<path fill-rule="evenodd" clip-rule="evenodd" d="M85.4062 103.243H95.0329V112.869H85.4062V103.243Z" fill="#FEFDE9"/>
<path fill-rule="evenodd" clip-rule="evenodd" d="M112.911 103.243H122.538V112.869H112.911V103.243Z" fill="#FEFDE9"/>
<path fill-rule="evenodd" clip-rule="evenodd" d="M122.079 103.243H131.706V112.869H122.079V103.243Z" fill="#FEFDE9"/>
<path fill-rule="evenodd" clip-rule="evenodd" d="M131.248 103.243H140.874V112.869H131.248V103.243Z" fill="#FEFDE9"/>
<path fill-rule="evenodd" clip-rule="evenodd" d="M167.921 103.243H177.547V112.869H167.921V103.243Z" fill="#FEFDE9"/>
<path fill-rule="evenodd" clip-rule="evenodd" d="M195.426 103.243H205.052V112.869H195.426V103.243Z" fill="#FEFDE9"/>
<path fill-rule="evenodd" clip-rule="evenodd" d="M204.594 103.243H214.22V112.869H204.594V103.243Z" fill="#FEFDE9"/>
<path fill-rule="evenodd" clip-rule="evenodd" d="M222.93 103.243H232.557V112.869H222.93V103.243Z" fill="#FEFDE9"/>
<path fill-rule="evenodd" clip-rule="evenodd" d="M232.099 103.243H241.725V112.869H232.099V103.243Z" fill="#FEFDE9"/>
<path fill-rule="evenodd" clip-rule="evenodd" d="M250.435 103.243H260.062V112.869H250.435V103.243Z" fill="#FEFDE9"/>
<path fill-rule="evenodd" clip-rule="evenodd" d="M268.772 103.243H278.398V112.869H268.772V103.243Z" fill="#FEFDE9"/>
<path fill-rule="evenodd" clip-rule="evenodd" d="M12.0601 112.411H21.6867V122.038H12.0601V112.411Z" fill="#FEFDE9"/>
<path fill-rule="evenodd" clip-rule="evenodd" d="M39.5649 112.411H49.1916V122.038H39.5649V112.411Z" fill="#FEFDE9"/>
<path fill-rule="evenodd" clip-rule="evenodd" d="M103.743 112.411H113.369V122.038H103.743V112.411Z" fill="#FEFDE9"/>
<path fill-rule="evenodd" clip-rule="evenodd" d="M112.911 112.411H122.538V122.038H112.911V112.411Z" fill="#FEFDE9"/>
<path fill-rule="evenodd" clip-rule="evenodd" d="M122.079 112.411H131.706V122.038H122.079V112.411Z" fill="#FEFDE9"/>
<path fill-rule="evenodd" clip-rule="evenodd" d="M131.248 112.411H140.874V122.038H131.248V112.411Z" fill="#FEFDE9"/>
<path fill-rule="evenodd" clip-rule="evenodd" d="M167.921 112.411H177.547V122.038H167.921V112.411Z" fill="#FEFDE9"/>
<path fill-rule="evenodd" clip-rule="evenodd" d="M186.257 112.411H195.884V122.038H186.257V112.411Z" fill="#FEFDE9"/>
<path fill-rule="evenodd" clip-rule="evenodd" d="M195.426 112.411H205.052V122.038H195.426V112.411Z" fill="#FEFDE9"/>
<path fill-rule="evenodd" clip-rule="evenodd" d="M213.762 112.411H223.389V122.038H213.762V112.411Z" fill="#FEFDE9"/>
<path fill-rule="evenodd" clip-rule="evenodd" d="M232.099 112.411H241.725V122.038H232.099V112.411Z" fill="#FEFDE9"/>
<path fill-rule="evenodd" clip-rule="evenodd" d="M12.0601 121.579H21.6867V131.206H12.0601V121.579Z" fill="#FEFDE9"/>
<path fill-rule="evenodd" clip-rule="evenodd" d="M39.5649 121.579H49.1916V131.206H39.5649V121.579Z" fill="#FEFDE9"/>
<path fill-rule="evenodd" clip-rule="evenodd" d="M48.7332 121.579H58.3598V131.206H48.7332V121.579Z" fill="#FEFDE9"/>
<path fill-rule="evenodd" clip-rule="evenodd" d="M57.9014 121.579H67.5281V131.206H57.9014V121.579Z" fill="#FEFDE9"/>
<path fill-rule="evenodd" clip-rule="evenodd" d="M67.0696 121.579H76.6963V131.206H67.0696V121.579Z" fill="#FEFDE9"/>
<path fill-rule="evenodd" clip-rule="evenodd" d="M85.4062 121.579H95.0329V131.206H85.4062V121.579Z" fill="#FEFDE9"/>
<path fill-rule="evenodd" clip-rule="evenodd" d="M112.911 121.579H122.538V131.206H112.911V121.579Z" fill="#FEFDE9"/>
<path fill-rule="evenodd" clip-rule="evenodd" d="M131.248 121.579H140.874V131.206H131.248V121.579Z" fill="#FEFDE9"/>
<path fill-rule="evenodd" clip-rule="evenodd" d="M149.584 121.579H159.211V131.206H149.584V121.579Z" fill="#FEFDE9"/>
<path fill-rule="evenodd" clip-rule="evenodd" d="M158.752 121.579H168.379V131.206H158.752V121.579Z" fill="#FEFDE9"/>
<path fill-rule="evenodd" clip-rule="evenodd" d="M177.089 121.579H186.716V131.206H177.089V121.579Z" fill="#FEFDE9"/>
<path fill-rule="evenodd" clip-rule="evenodd" d="M204.594 121.579H214.22V131.206H204.594V121.579Z" fill="#FEFDE9"/>
<path fill-rule="evenodd" clip-rule="evenodd" d="M213.762 121.579H223.389V131.206H213.762V121.579Z" fill="#FEFDE9"/>
<path fill-rule="evenodd" clip-rule="evenodd" d="M241.267 121.579H250.894V131.206H241.267V121.579Z" fill="#FEFDE9"/>
<path fill-rule="evenodd" clip-rule="evenodd" d="M259.604 121.579H269.23V131.206H259.604V121.579Z" fill="#FEFDE9"/>
<path fill-rule="evenodd" clip-rule="evenodd" d="M30.3965 130.748H40.0232V140.374H30.3965V130.748Z" fill="#FEFDE9"/>
<path fill-rule="evenodd" clip-rule="evenodd" d="M76.238 130.748H85.8647V140.374H76.238V130.748Z" fill="#FEFDE9"/>
<path fill-rule="evenodd" clip-rule="evenodd" d="M85.4062 130.748H95.0329V140.374H85.4062V130.748Z" fill="#FEFDE9"/>
<path fill-rule="evenodd" clip-rule="evenodd" d="M112.911 130.748H122.538V140.374H112.911V130.748Z" fill="#FEFDE9"/>
<path fill-rule="evenodd" clip-rule="evenodd" d="M140.416 130.748H150.042V140.374H140.416V130.748Z" fill="#FEFDE9"/>
<path fill-rule="evenodd" clip-rule="evenodd" d="M149.584 130.748H159.211V140.374H149.584V130.748Z" fill="#FEFDE9"/>
<path fill-rule="evenodd" clip-rule="evenodd" d="M167.921 130.748H177.547V140.374H167.921V130.748Z" fill="#FEFDE9"/>
<path fill-rule="evenodd" clip-rule="evenodd" d="M186.257 130.748H195.884V140.374H186.257V130.748Z" fill="#FEFDE9"/>
<path fill-rule="evenodd" clip-rule="evenodd" d="M195.426 130.748H205.052V140.374H195.426V130.748Z" fill="#FEFDE9"/>
<path fill-rule="evenodd" clip-rule="evenodd" d="M213.762 130.748H223.389V140.374H213.762V130.748Z" fill="#FEFDE9"/>
<path fill-rule="evenodd" clip-rule="evenodd" d="M241.267 130.748H250.894V140.374H241.267V130.748Z" fill="#FEFDE9"/>
<path fill-rule="evenodd" clip-rule="evenodd" d="M268.772 130.748H278.398V140.374H268.772V130.748Z" fill="#FEFDE9"/>
<path fill-rule="evenodd" clip-rule="evenodd" d="M21.2283 139.916H30.855V149.542H21.2283V139.916Z" fill="#FEFDE9"/>
<path fill-rule="evenodd" clip-rule="evenodd" d="M30.3965 139.916H40.0232V149.542H30.3965V139.916Z" fill="#FEFDE9"/>
<path fill-rule="evenodd" clip-rule="evenodd" d="M39.5649 139.916H49.1916V149.542H39.5649V139.916Z" fill="#FEFDE9"/>
<path fill-rule="evenodd" clip-rule="evenodd" d="M48.7332 139.916H58.3598V149.542H48.7332V139.916Z" fill="#FEFDE9"/>
<path fill-rule="evenodd" clip-rule="evenodd" d="M57.9014 139.916H67.5281V149.542H57.9014V139.916Z" fill="#FEFDE9"/>
<path fill-rule="evenodd" clip-rule="evenodd" d="M67.0696 139.916H76.6963V149.542H67.0696V139.916Z" fill="#FEFDE9"/>
<path fill-rule="evenodd" clip-rule="evenodd" d="M85.4062 139.916H95.0329V149.542H85.4062V139.916Z" fill="#FEFDE9"/>
<path fill-rule="evenodd" clip-rule="evenodd" d="M158.752 139.916H168.379V149.542H158.752V139.916Z" fill="#FEFDE9"/>
<path fill-rule="evenodd" clip-rule="evenodd" d="M177.089 139.916H186.716V149.542H177.089V139.916Z" fill="#FEFDE9"/>
<path fill-rule="evenodd" clip-rule="evenodd" d="M186.257 139.916H195.884V149.542H186.257V139.916Z" fill="#FEFDE9"/>
<path fill-rule="evenodd" clip-rule="evenodd" d="M213.762 139.916H223.389V149.542H213.762V139.916Z" fill="#FEFDE9"/>
<path fill-rule="evenodd" clip-rule="evenodd" d="M241.267 139.916H250.894V149.542H241.267V139.916Z" fill="#FEFDE9"/>
<path fill-rule="evenodd" clip-rule="evenodd" d="M250.435 139.916H260.062V149.542H250.435V139.916Z" fill="#FEFDE9"/>
<path fill-rule="evenodd" clip-rule="evenodd" d="M268.772 139.916H278.398V149.542H268.772V139.916Z" fill="#FEFDE9"/>
<path fill-rule="evenodd" clip-rule="evenodd" d="M21.2283 149.084H30.855V158.711H21.2283V149.084Z" fill="#FEFDE9"/>
<path fill-rule="evenodd" clip-rule="evenodd" d="M76.238 149.084H85.8647V158.711H76.238V149.084Z" fill="#FEFDE9"/>
<path fill-rule="evenodd" clip-rule="evenodd" d="M94.5745 149.084H104.201V158.711H94.5745V149.084Z" fill="#FEFDE9"/>
<path fill-rule="evenodd" clip-rule="evenodd" d="M112.911 149.084H122.538V158.711H112.911V149.084Z" fill="#FEFDE9"/>
<path fill-rule="evenodd" clip-rule="evenodd" d="M122.079 149.084H131.706V158.711H122.079V149.084Z" fill="#FEFDE9"/>
<path fill-rule="evenodd" clip-rule="evenodd" d="M131.248 149.084H140.874V158.711H131.248V149.084Z" fill="#FEFDE9"/>
<path fill-rule="evenodd" clip-rule="evenodd" d="M140.416 149.084H150.042V158.711H140.416V149.084Z" fill="#FEFDE9"/>
<path fill-rule="evenodd" clip-rule="evenodd" d="M149.584 149.084H159.211V158.711H149.584V149.084Z" fill="#FEFDE9"/>
<path fill-rule="evenodd" clip-rule="evenodd" d="M167.921 149.084H177.547V158.711H167.921V149.084Z" fill="#FEFDE9"/>
<path fill-rule="evenodd" clip-rule="evenodd" d="M204.594 149.084H214.22V158.711H204.594V149.084Z" fill="#FEFDE9"/>
<path fill-rule="evenodd" clip-rule="evenodd" d="M213.762 149.084H223.389V158.711H213.762V149.084Z" fill="#FEFDE9"/>
<path fill-rule="evenodd" clip-rule="evenodd" d="M241.267 149.084H250.894V158.711H241.267V149.084Z" fill="#FEFDE9"/>
<path fill-rule="evenodd" clip-rule="evenodd" d="M268.772 149.084H278.398V158.711H268.772V149.084Z" fill="#FEFDE9"/>
<path fill-rule="evenodd" clip-rule="evenodd" d="M21.2283 158.252H30.855V167.879H21.2283V158.252Z" fill="#FEFDE9"/>
<path fill-rule="evenodd" clip-rule="evenodd" d="M30.3965 158.252H40.0232V167.879H30.3965V158.252Z" fill="#FEFDE9"/>
<path fill-rule="evenodd" clip-rule="evenodd" d="M39.5649 158.252H49.1916V167.879H39.5649V158.252Z" fill="#FEFDE9"/>
<path fill-rule="evenodd" clip-rule="evenodd" d="M48.7332 158.252H58.3598V167.879H48.7332V158.252Z" fill="#FEFDE9"/>
<path fill-rule="evenodd" clip-rule="evenodd" d="M57.9014 158.252H67.5281V167.879H57.9014V158.252Z" fill="#FEFDE9"/>
<path fill-rule="evenodd" clip-rule="evenodd" d="M67.0696 158.252H76.6963V167.879H67.0696V158.252Z" fill="#FEFDE9"/>
<path fill-rule="evenodd" clip-rule="evenodd" d="M76.238 158.252H85.8647V167.879H76.238V158.252Z" fill="#FEFDE9"/>
<path fill-rule="evenodd" clip-rule="evenodd" d="M85.4062 158.252H95.0329V167.879H85.4062V158.252Z" fill="#FEFDE9"/>
<path fill-rule="evenodd" clip-rule="evenodd" d="M103.743 158.252H113.369V167.879H103.743V158.252Z" fill="#FEFDE9"/>
<path fill-rule="evenodd" clip-rule="evenodd" d="M122.079 158.252H131.706V167.879H122.079V158.252Z" fill="#FEFDE9"/>
<path fill-rule="evenodd" clip-rule="evenodd" d="M131.248 158.252H140.874V167.879H131.248V158.252Z" fill="#FEFDE9"/>
<path fill-rule="evenodd" clip-rule="evenodd" d="M167.921 158.252H177.547V167.879H167.921V158.252Z" fill="#FEFDE9"/>
<path fill-rule="evenodd" clip-rule="evenodd" d="M177.089 158.252H186.716V167.879H177.089V158.252Z" fill="#FEFDE9"/>
<path fill-rule="evenodd" clip-rule="evenodd" d="M186.257 158.252H195.884V167.879H186.257V158.252Z" fill="#FEFDE9"/>
<path fill-rule="evenodd" clip-rule="evenodd" d="M204.594 158.252H214.22V167.879H204.594V158.252Z" fill="#FEFDE9"/>
<path fill-rule="evenodd" clip-rule="evenodd" d="M213.762 158.252H223.389V167.879H213.762V158.252Z" fill="#FEFDE9"/>
<path fill-rule="evenodd" clip-rule="evenodd" d="M222.93 158.252H232.557V167.879H222.93V158.252Z" fill="#FEFDE9"/>
<path fill-rule="evenodd" clip-rule="evenodd" d="M232.099 158.252H241.725V167.879H232.099V158.252Z" fill="#FEFDE9"/>
<path fill-rule="evenodd" clip-rule="evenodd" d="M259.604 158.252H269.23V167.879H259.604V158.252Z" fill="#FEFDE9"/>
<path fill-rule="evenodd" clip-rule="evenodd" d="M268.772 158.252H278.398V167.879H268.772V158.252Z" fill="#FEFDE9"/>
<path fill-rule="evenodd" clip-rule="evenodd" d="M39.5649 167.421H49.1916V177.047H39.5649V167.421Z" fill="#FEFDE9"/>
<path fill-rule="evenodd" clip-rule="evenodd" d="M85.4062 167.421H95.0329V177.047H85.4062V167.421Z" fill="#FEFDE9"/>
<path fill-rule="evenodd" clip-rule="evenodd" d="M112.911 167.421H122.538V177.047H112.911V167.421Z" fill="#FEFDE9"/>
<path fill-rule="evenodd" clip-rule="evenodd" d="M122.079 167.421H131.706V177.047H122.079V167.421Z" fill="#FEFDE9"/>
<path fill-rule="evenodd" clip-rule="evenodd" d="M131.248 167.421H140.874V177.047H131.248V167.421Z" fill="#FEFDE9"/>
<path fill-rule="evenodd" clip-rule="evenodd" d="M149.584 167.421H159.211V177.047H149.584V167.421Z" fill="#FEFDE9"/>
<path fill-rule="evenodd" clip-rule="evenodd" d="M158.752 167.421H168.379V177.047H158.752V167.421Z" fill="#FEFDE9"/>
<path fill-rule="evenodd" clip-rule="evenodd" d="M222.93 167.421H232.557V177.047H222.93V167.421Z" fill="#FEFDE9"/>
<path fill-rule="evenodd" clip-rule="evenodd" d="M241.267 167.421H250.894V177.047H241.267V167.421Z" fill="#FEFDE9"/>
<path fill-rule="evenodd" clip-rule="evenodd" d="M250.435 167.421H260.062V177.047H250.435V167.421Z" fill="#FEFDE9"/>
<path fill-rule="evenodd" clip-rule="evenodd" d="M268.772 167.421H278.398V177.047H268.772V167.421Z" fill="#FEFDE9"/>
<path fill-rule="evenodd" clip-rule="evenodd" d="M12.0601 176.589H21.6867V186.216H12.0601V176.589Z" fill="#FEFDE9"/>
<path fill-rule="evenodd" clip-rule="evenodd" d="M21.2283 176.589H30.855V186.216H21.2283V176.589Z" fill="#FEFDE9"/>
<path fill-rule="evenodd" clip-rule="evenodd" d="M30.3965 176.589H40.0232V186.216H30.3965V176.589Z" fill="#FEFDE9"/>
<path fill-rule="evenodd" clip-rule="evenodd" d="M67.0696 176.589H76.6963V186.216H67.0696V176.589Z" fill="#FEFDE9"/>
<path fill-rule="evenodd" clip-rule="evenodd" d="M85.4062 176.589H95.0329V186.216H85.4062V176.589Z" fill="#FEFDE9"/>
<path fill-rule="evenodd" clip-rule="evenodd" d="M112.911 176.589H122.538V186.216H112.911V176.589Z" fill="#FEFDE9"/>
<path fill-rule="evenodd" clip-rule="evenodd" d="M122.079 176.589H131.706V186.216H122.079V176.589Z" fill="#FEFDE9"/>
<path fill-rule="evenodd" clip-rule="evenodd" d="M158.752 176.589H168.379V186.216H158.752V176.589Z" fill="#FEFDE9"/>
<path fill-rule="evenodd" clip-rule="evenodd" d="M167.921 176.589H177.547V186.216H167.921V176.589Z" fill="#FEFDE9"/>
<path fill-rule="evenodd" clip-rule="evenodd" d="M186.257 176.589H195.884V186.216H186.257V176.589Z" fill="#FEFDE9"/>
<path fill-rule="evenodd" clip-rule="evenodd" d="M268.772 176.589H278.398V186.216H268.772V176.589Z" fill="#FEFDE9"/>
<path fill-rule="evenodd" clip-rule="evenodd" d="M30.3965 185.757H40.0232V195.384H30.3965V185.757Z" fill="#FEFDE9"/>
<path fill-rule="evenodd" clip-rule="evenodd" d="M39.5649 185.757H49.1916V195.384H39.5649V185.757Z" fill="#FEFDE9"/>
<path fill-rule="evenodd" clip-rule="evenodd" d="M76.238 185.757H85.8647V195.384H76.238V185.757Z" fill="#FEFDE9"/>
<path fill-rule="evenodd" clip-rule="evenodd" d="M122.079 185.757H131.706V195.384H122.079V185.757Z" fill="#FEFDE9"/>
<path fill-rule="evenodd" clip-rule="evenodd" d="M131.248 185.757H140.874V195.384H131.248V185.757Z" fill="#FEFDE9"/>
<path fill-rule="evenodd" clip-rule="evenodd" d="M140.416 185.757H150.042V195.384H140.416V185.757Z" fill="#FEFDE9"/>
<path fill-rule="evenodd" clip-rule="evenodd" d="M149.584 185.757H159.211V195.384H149.584V185.757Z" fill="#FEFDE9"/>
<path fill-rule="evenodd" clip-rule="evenodd" d="M158.752 185.757H168.379V195.384H158.752V185.757Z" fill="#FEFDE9"/>
<path fill-rule="evenodd" clip-rule="evenodd" d="M167.921 185.757H177.547V195.384H167.921V185.757Z" fill="#FEFDE9"/>
<path fill-rule="evenodd" clip-rule="evenodd" d="M177.089 185.757H186.716V195.384H177.089V185.757Z" fill="#FEFDE9"/>
<path fill-rule="evenodd" clip-rule="evenodd" d="M204.594 185.757H214.22V195.384H204.594V185.757Z" fill="#FEFDE9"/>
<path fill-rule="evenodd" clip-rule="evenodd" d="M213.762 185.757H223.389V195.384H213.762V185.757Z" fill="#FEFDE9"/>
<path fill-rule="evenodd" clip-rule="evenodd" d="M222.93 185.757H232.557V195.384H222.93V185.757Z" fill="#FEFDE9"/>
<path fill-rule="evenodd" clip-rule="evenodd" d="M241.267 185.757H250.894V195.384H241.267V185.757Z" fill="#FEFDE9"/>
<path fill-rule="evenodd" clip-rule="evenodd" d="M259.604 185.757H269.23V195.384H259.604V185.757Z" fill="#FEFDE9"/>
<path fill-rule="evenodd" clip-rule="evenodd" d="M268.772 185.757H278.398V195.384H268.772V185.757Z" fill="#FEFDE9"/>
<path fill-rule="evenodd" clip-rule="evenodd" d="M12.0601 194.926H21.6867V204.552H12.0601V194.926Z" fill="#FEFDE9"/>
<path fill-rule="evenodd" clip-rule="evenodd" d="M21.2283 194.926H30.855V204.552H21.2283V194.926Z" fill="#FEFDE9"/>
<path fill-rule="evenodd" clip-rule="evenodd" d="M57.9014 194.926H67.5281V204.552H57.9014V194.926Z" fill="#FEFDE9"/>
<path fill-rule="evenodd" clip-rule="evenodd" d="M67.0696 194.926H76.6963V204.552H67.0696V194.926Z" fill="#FEFDE9"/>
<path fill-rule="evenodd" clip-rule="evenodd" d="M85.4062 194.926H95.0329V204.552H85.4062V194.926Z" fill="#FEFDE9"/>
<path fill-rule="evenodd" clip-rule="evenodd" d="M94.5745 194.926H104.201V204.552H94.5745V194.926Z" fill="#FEFDE9"/>
<path fill-rule="evenodd" clip-rule="evenodd" d="M122.079 194.926H131.706V204.552H122.079V194.926Z" fill="#FEFDE9"/>
<path fill-rule="evenodd" clip-rule="evenodd" d="M131.248 194.926H140.874V204.552H131.248V194.926Z" fill="#FEFDE9"/>
<path fill-rule="evenodd" clip-rule="evenodd" d="M149.584 194.926H159.211V204.552H149.584V194.926Z" fill="#FEFDE9"/>
<path fill-rule="evenodd" clip-rule="evenodd" d="M186.257 194.926H195.884V204.552H186.257V194.926Z" fill="#FEFDE9"/>
<path fill-rule="evenodd" clip-rule="evenodd" d="M195.426 194.926H205.052V204.552H195.426V194.926Z" fill="#FEFDE9"/>
<path fill-rule="evenodd" clip-rule="evenodd" d="M204.594 194.926H214.22V204.552H204.594V194.926Z" fill="#FEFDE9"/>
<path fill-rule="evenodd" clip-rule="evenodd" d="M213.762 194.926H223.389V204.552H213.762V194.926Z" fill="#FEFDE9"/>
<path fill-rule="evenodd" clip-rule="evenodd" d="M222.93 194.926H232.557V204.552H222.93V194.926Z" fill="#FEFDE9"/>
<path fill-rule="evenodd" clip-rule="evenodd" d="M232.099 194.926H241.725V204.552H232.099V194.926Z" fill="#FEFDE9"/>
<path fill-rule="evenodd" clip-rule="evenodd" d="M250.435 194.926H260.062V204.552H250.435V194.926Z" fill="#FEFDE9"/>
<path fill-rule="evenodd" clip-rule="evenodd" d="M259.604 194.926H269.23V204.552H259.604V194.926Z" fill="#FEFDE9"/>
<path fill-rule="evenodd" clip-rule="evenodd" d="M268.772 194.926H278.398V204.552H268.772V194.926Z" fill="#FEFDE9"/>
<path fill-rule="evenodd" clip-rule="evenodd" d="M85.4062 204.094H95.0329V213.72H85.4062V204.094Z" fill="#FEFDE9"/>
<path fill-rule="evenodd" clip-rule="evenodd" d="M103.743 204.094H113.369V213.72H103.743V204.094Z" fill="#FEFDE9"/>
<path fill-rule="evenodd" clip-rule="evenodd" d="M112.911 204.094H122.538V213.72H112.911V204.094Z" fill="#FEFDE9"/>
<path fill-rule="evenodd" clip-rule="evenodd" d="M140.416 204.094H150.042V213.72H140.416V204.094Z" fill="#FEFDE9"/>
<path fill-rule="evenodd" clip-rule="evenodd" d="M186.257 204.094H195.884V213.72H186.257V204.094Z" fill="#FEFDE9"/>
<path fill-rule="evenodd" clip-rule="evenodd" d="M195.426 204.094H205.052V213.72H195.426V204.094Z" fill="#FEFDE9"/>
<path fill-rule="evenodd" clip-rule="evenodd" d="M232.099 204.094H241.725V213.72H232.099V204.094Z" fill="#FEFDE9"/>
<path fill-rule="evenodd" clip-rule="evenodd" d="M241.267 204.094H250.894V213.72H241.267V204.094Z" fill="#FEFDE9"/>
<path fill-rule="evenodd" clip-rule="evenodd" d="M268.772 204.094H278.398V213.72H268.772V204.094Z" fill="#FEFDE9"/>
<path fill-rule="evenodd" clip-rule="evenodd" d="M85.4062 213.262H95.0329V222.889H85.4062V213.262Z" fill="#FEFDE9"/>
<path fill-rule="evenodd" clip-rule="evenodd" d="M103.743 213.262H113.369V222.889H103.743V213.262Z" fill="#FEFDE9"/>
<path fill-rule="evenodd" clip-rule="evenodd" d="M112.911 213.262H122.538V222.889H112.911V213.262Z" fill="#FEFDE9"/>
<path fill-rule="evenodd" clip-rule="evenodd" d="M140.416 213.262H150.042V222.889H140.416V213.262Z" fill="#FEFDE9"/>
<path fill-rule="evenodd" clip-rule="evenodd" d="M158.752 213.262H168.379V222.889H158.752V213.262Z" fill="#FEFDE9"/>
<path fill-rule="evenodd" clip-rule="evenodd" d="M177.089 213.262H186.716V222.889H177.089V213.262Z" fill="#FEFDE9"/>
<path fill-rule="evenodd" clip-rule="evenodd" d="M195.426 213.262H205.052V222.889H195.426V213.262Z" fill="#FEFDE9"/>
<path fill-rule="evenodd" clip-rule="evenodd" d="M213.762 213.262H223.389V222.889H213.762V213.262Z" fill="#FEFDE9"/>
<path fill-rule="evenodd" clip-rule="evenodd" d="M232.099 213.262H241.725V222.889H232.099V213.262Z" fill="#FEFDE9"/>
<path fill-rule="evenodd" clip-rule="evenodd" d="M241.267 213.262H250.894V222.889H241.267V213.262Z" fill="#FEFDE9"/>
<path fill-rule="evenodd" clip-rule="evenodd" d="M250.435 213.262H260.062V222.889H250.435V213.262Z" fill="#FEFDE9"/>
<path fill-rule="evenodd" clip-rule="evenodd" d="M268.772 213.262H278.398V222.889H268.772V213.262Z" fill="#FEFDE9"/>
<path fill-rule="evenodd" clip-rule="evenodd" d="M85.4062 222.43H95.0329V232.057H85.4062V222.43Z" fill="#FEFDE9"/>
<path fill-rule="evenodd" clip-rule="evenodd" d="M103.743 222.43H113.369V232.057H103.743V222.43Z" fill="#FEFDE9"/>
<path fill-rule="evenodd" clip-rule="evenodd" d="M149.584 222.43H159.211V232.057H149.584V222.43Z" fill="#FEFDE9"/>
<path fill-rule="evenodd" clip-rule="evenodd" d="M158.752 222.43H168.379V232.057H158.752V222.43Z" fill="#FEFDE9"/>
<path fill-rule="evenodd" clip-rule="evenodd" d="M167.921 222.43H177.547V232.057H167.921V222.43Z" fill="#FEFDE9"/>
<path fill-rule="evenodd" clip-rule="evenodd" d="M177.089 222.43H186.716V232.057H177.089V222.43Z" fill="#FEFDE9"/>
<path fill-rule="evenodd" clip-rule="evenodd" d="M186.257 222.43H195.884V232.057H186.257V222.43Z" fill="#FEFDE9"/>
<path fill-rule="evenodd" clip-rule="evenodd" d="M195.426 222.43H205.052V232.057H195.426V222.43Z" fill="#FEFDE9"/>
<path fill-rule="evenodd" clip-rule="evenodd" d="M232.099 222.43H241.725V232.057H232.099V222.43Z" fill="#FEFDE9"/>
<path fill-rule="evenodd" clip-rule="evenodd" d="M241.267 222.43H250.894V232.057H241.267V222.43Z" fill="#FEFDE9"/>
<path fill-rule="evenodd" clip-rule="evenodd" d="M268.772 222.43H278.398V232.057H268.772V222.43Z" fill="#FEFDE9"/>
<path fill-rule="evenodd" clip-rule="evenodd" d="M103.743 231.599H113.369V241.225H103.743V231.599Z" fill="#FEFDE9"/>
<path fill-rule="evenodd" clip-rule="evenodd" d="M158.752 231.599H168.379V241.225H158.752V231.599Z" fill="#FEFDE9"/>
<path fill-rule="evenodd" clip-rule="evenodd" d="M177.089 231.599H186.716V241.225H177.089V231.599Z" fill="#FEFDE9"/>
<path fill-rule="evenodd" clip-rule="evenodd" d="M186.257 231.599H195.884V241.225H186.257V231.599Z" fill="#FEFDE9"/>
<path fill-rule="evenodd" clip-rule="evenodd" d="M195.426 231.599H205.052V241.225H195.426V231.599Z" fill="#FEFDE9"/>
<path fill-rule="evenodd" clip-rule="evenodd" d="M204.594 231.599H214.22V241.225H204.594V231.599Z" fill="#FEFDE9"/>
<path fill-rule="evenodd" clip-rule="evenodd" d="M213.762 231.599H223.389V241.225H213.762V231.599Z" fill="#FEFDE9"/>
<path fill-rule="evenodd" clip-rule="evenodd" d="M222.93 231.599H232.557V241.225H222.93V231.599Z" fill="#FEFDE9"/>
<path fill-rule="evenodd" clip-rule="evenodd" d="M232.099 231.599H241.725V241.225H232.099V231.599Z" fill="#FEFDE9"/>
<path fill-rule="evenodd" clip-rule="evenodd" d="M94.5745 240.767H104.201V250.394H94.5745V240.767Z" fill="#FEFDE9"/>
<path fill-rule="evenodd" clip-rule="evenodd" d="M103.743 240.767H113.369V250.394H103.743V240.767Z" fill="#FEFDE9"/>
<path fill-rule="evenodd" clip-rule="evenodd" d="M112.911 240.767H122.538V250.394H112.911V240.767Z" fill="#FEFDE9"/>
<path fill-rule="evenodd" clip-rule="evenodd" d="M122.079 240.767H131.706V250.394H122.079V240.767Z" fill="#FEFDE9"/>
<path fill-rule="evenodd" clip-rule="evenodd" d="M131.248 240.767H140.874V250.394H131.248V240.767Z" fill="#FEFDE9"/>
<path fill-rule="evenodd" clip-rule="evenodd" d="M149.584 240.767H159.211V250.394H149.584V240.767Z" fill="#FEFDE9"/>
<path fill-rule="evenodd" clip-rule="evenodd" d="M177.089 240.767H186.716V250.394H177.089V240.767Z" fill="#FEFDE9"/>
<path fill-rule="evenodd" clip-rule="evenodd" d="M186.257 240.767H195.884V250.394H186.257V240.767Z" fill="#FEFDE9"/>
<path fill-rule="evenodd" clip-rule="evenodd" d="M195.426 240.767H205.052V250.394H195.426V240.767Z" fill="#FEFDE9"/>
<path fill-rule="evenodd" clip-rule="evenodd" d="M222.93 240.767H232.557V250.394H222.93V240.767Z" fill="#FEFDE9"/>
<path fill-rule="evenodd" clip-rule="evenodd" d="M232.099 240.767H241.725V250.394H232.099V240.767Z" fill="#FEFDE9"/>
<path fill-rule="evenodd" clip-rule="evenodd" d="M259.604 240.767H269.23V250.394H259.604V240.767Z" fill="#FEFDE9"/>
<path fill-rule="evenodd" clip-rule="evenodd" d="M85.4062 249.935H95.0329V259.562H85.4062V249.935Z" fill="#FEFDE9"/>
<path fill-rule="evenodd" clip-rule="evenodd" d="M131.248 249.935H140.874V259.562H131.248V249.935Z" fill="#FEFDE9"/>
<path fill-rule="evenodd" clip-rule="evenodd" d="M140.416 249.935H150.042V259.562H140.416V249.935Z" fill="#FEFDE9"/>
<path fill-rule="evenodd" clip-rule="evenodd" d="M149.584 249.935H159.211V259.562H149.584V249.935Z" fill="#FEFDE9"/>
<path fill-rule="evenodd" clip-rule="evenodd" d="M177.089 249.935H186.716V259.562H177.089V249.935Z" fill="#FEFDE9"/>
<path fill-rule="evenodd" clip-rule="evenodd" d="M204.594 249.935H214.22V259.562H204.594V249.935Z" fill="#FEFDE9"/>
<path fill-rule="evenodd" clip-rule="evenodd" d="M232.099 249.935H241.725V259.562H232.099V249.935Z" fill="#FEFDE9"/>
<path fill-rule="evenodd" clip-rule="evenodd" d="M259.604 249.935H269.23V259.562H259.604V249.935Z" fill="#FEFDE9"/>
<path fill-rule="evenodd" clip-rule="evenodd" d="M268.772 249.935H278.398V259.562H268.772V249.935Z" fill="#FEFDE9"/>
<path fill-rule="evenodd" clip-rule="evenodd" d="M94.5745 259.104H104.201V268.73H94.5745V259.104Z" fill="#FEFDE9"/>
<path fill-rule="evenodd" clip-rule="evenodd" d="M122.079 259.104H131.706V268.73H122.079V259.104Z" fill="#FEFDE9"/>
<path fill-rule="evenodd" clip-rule="evenodd" d="M131.248 259.104H140.874V268.73H131.248V259.104Z" fill="#FEFDE9"/>
<path fill-rule="evenodd" clip-rule="evenodd" d="M158.752 259.104H168.379V268.73H158.752V259.104Z" fill="#FEFDE9"/>
<path fill-rule="evenodd" clip-rule="evenodd" d="M167.921 259.104H177.547V268.73H167.921V259.104Z" fill="#FEFDE9"/>
<path fill-rule="evenodd" clip-rule="evenodd" d="M177.089 259.104H186.716V268.73H177.089V259.104Z" fill="#FEFDE9"/>
<path fill-rule="evenodd" clip-rule="evenodd" d="M204.594 259.104H214.22V268.73H204.594V259.104Z" fill="#FEFDE9"/>
<path fill-rule="evenodd" clip-rule="evenodd" d="M213.762 259.104H223.389V268.73H213.762V259.104Z" fill="#FEFDE9"/>
<path fill-rule="evenodd" clip-rule="evenodd" d="M241.267 259.104H250.894V268.73H241.267V259.104Z" fill="#FEFDE9"/>
<path fill-rule="evenodd" clip-rule="evenodd" d="M140.416 268.272H150.042V277.898H140.416V268.272Z" fill="#FEFDE9"/>
<path fill-rule="evenodd" clip-rule="evenodd" d="M158.752 268.272H168.379V277.898H158.752V268.272Z" fill="#FEFDE9"/>
<path fill-rule="evenodd" clip-rule="evenodd" d="M204.594 268.272H214.22V277.898H204.594V268.272Z" fill="#FEFDE9"/>
<path fill-rule="evenodd" clip-rule="evenodd" d="M222.93 268.272H232.557V277.898H222.93V268.272Z" fill="#FEFDE9"/>
<path fill-rule="evenodd" clip-rule="evenodd" d="M232.099 268.272H241.725V277.898H232.099V268.272Z" fill="#FEFDE9"/>
<path fill-rule="evenodd" clip-rule="evenodd" d="M241.267 268.272H250.894V277.898H241.267V268.272Z" fill="#FEFDE9"/>
<path fill-rule="evenodd" clip-rule="evenodd" d="M250.435 268.272H260.062V277.898H250.435V268.272Z" fill="#FEFDE9"/>
<path fill-rule="evenodd" clip-rule="evenodd" d="M268.772 268.272H278.398V277.898H268.772V268.272Z" fill="#FEFDE9"/>
<path fill-rule="evenodd" clip-rule="evenodd" d="M12.0601 11.5601V75.738H76.238V11.5601H12.0601ZM67.0697 66.5697H21.2283V20.7283H67.0697V75.738V66.5697Z" fill="#FEFDE9"/>
<path fill-rule="evenodd" clip-rule="evenodd" d="M12.0601 213.262V277.44H76.238V213.262H12.0601ZM67.0697 268.272H21.2283V222.43H67.0697V277.44V268.272Z" fill="#FEFDE9"/>
<path fill-rule="evenodd" clip-rule="evenodd" d="M213.762 11.5601V75.738H277.94V11.5601H213.762ZM268.772 66.5697H222.93V20.7283H268.772V75.738V66.5697Z" fill="#FEFDE9"/>
<path fill-rule="evenodd" clip-rule="evenodd" d="M30.3965 29.8965V57.4013H57.9013V29.8965H30.3965Z" fill="#FEFDE9"/>
<path fill-rule="evenodd" clip-rule="evenodd" d="M232.099 29.8965V57.4013H259.603V29.8965H232.099Z" fill="#FEFDE9"/>
<path fill-rule="evenodd" clip-rule="evenodd" d="M30.3965 231.599V259.103H57.9013V231.599H30.3965Z" fill="#FEFDE9"/>
</g>
<defs>
<clipPath id="clip0_184_3401">
<rect width="289" height="289" fill="white" transform="translate(0.5)"/>
</clipPath>
</defs>
</svg>
